<mxfile host="app.diagrams.net" modified="2021-11-22T06:26:14.623Z" agent="5.0 (Macintosh; Intel Mac OS X 10_15_7) AppleWebKit/537.36 (KHTML, like Gecko) Chrome/92.0.4515.159 Safari/537.36" etag="pEroX5OfDDQiCXK5otpC" version="15.8.2" type="github">
  <diagram id="rblEHMYczIlUefmx_pWw" name="第 1 页">
    <mxGraphModel dx="1426" dy="791" grid="1" gridSize="10" guides="1" tooltips="1" connect="1" arrows="1" fold="1" page="1" pageScale="1" pageWidth="827" pageHeight="1169" math="0" shadow="0">
      <root>
        <mxCell id="0" />
        <mxCell id="1" parent="0" />
        <mxCell id="r-J8uKCgHUFRE19tik7d-10" value="" style="whiteSpace=wrap;html=1;fontColor=#46495D;strokeColor=#788AA3;fillColor=#B2C9AB;fontFamily=Comic Sans MS;sketch=1;rounded=1;" parent="1" vertex="1">
          <mxGeometry x="140" y="180" width="510" height="330" as="geometry" />
        </mxCell>
        <mxCell id="r-J8uKCgHUFRE19tik7d-13" value="frontend&amp;nbsp;&lt;span style=&quot;color: rgb(51, 51, 51); font-family: &amp;quot;helvetica neue&amp;quot;, helvetica, arial, &amp;quot;hiragino sans gb&amp;quot;, &amp;quot;hiragino sans gb w3&amp;quot;, &amp;quot;microsoft yahei ui&amp;quot;, &amp;quot;microsoft yahei&amp;quot;, sans-serif; font-size: 16px; text-align: left;&quot;&gt;structure&lt;/span&gt;" style="text;html=1;strokeColor=none;fillColor=none;align=center;verticalAlign=middle;whiteSpace=wrap;fontFamily=Comic Sans MS;fontColor=#46495D;fontSize=16;sketch=1;rounded=1;" parent="1" vertex="1">
          <mxGeometry x="312" y="480" width="166" height="30" as="geometry" />
        </mxCell>
        <mxCell id="r-J8uKCgHUFRE19tik7d-14" value="&lt;span style=&quot;color: rgb(51, 51, 51); font-size: 13px; text-align: left;&quot;&gt;third party library&lt;/span&gt;" style="whiteSpace=wrap;html=1;fillColor=#B2C9AB;strokeColor=#788AA3;fontColor=#46495D;fontFamily=Comic Sans MS;arcSize=15;sketch=1;rounded=1;" parent="1" vertex="1">
          <mxGeometry x="160" y="380" width="470" height="40" as="geometry" />
        </mxCell>
        <mxCell id="r-J8uKCgHUFRE19tik7d-15" value="&lt;span style=&quot;color: rgb(51 , 51 , 51) ; font-size: 13px ; text-align: left&quot;&gt;@ausz/utils&lt;/span&gt;" style="whiteSpace=wrap;html=1;fillColor=#B2C9AB;strokeColor=#788AA3;fontColor=#46495D;fontFamily=Comic Sans MS;arcSize=15;sketch=1;rounded=1;" parent="1" vertex="1">
          <mxGeometry x="160" y="320" width="470" height="40" as="geometry" />
        </mxCell>
        <mxCell id="r-J8uKCgHUFRE19tik7d-16" value="&lt;span style=&quot;color: rgb(51 , 51 , 51) ; font-size: 13px ; text-align: left&quot;&gt;@ausz/ui&lt;/span&gt;" style="whiteSpace=wrap;html=1;fillColor=#B2C9AB;strokeColor=#788AA3;fontColor=#46495D;fontFamily=Comic Sans MS;arcSize=15;sketch=1;rounded=1;" parent="1" vertex="1">
          <mxGeometry x="160" y="260" width="150" height="40" as="geometry" />
        </mxCell>
        <mxCell id="r-J8uKCgHUFRE19tik7d-17" value="&lt;span style=&quot;color: rgb(51 , 51 , 51) ; font-size: 13px ; text-align: left&quot;&gt;@ausz/graphics&lt;/span&gt;" style="whiteSpace=wrap;html=1;fillColor=#B2C9AB;strokeColor=#788AA3;fontColor=#46495D;fontFamily=Comic Sans MS;arcSize=15;sketch=1;rounded=1;" parent="1" vertex="1">
          <mxGeometry x="320" y="260" width="150" height="40" as="geometry" />
        </mxCell>
        <mxCell id="r-J8uKCgHUFRE19tik7d-18" value="&lt;span style=&quot;color: rgb(51 , 51 , 51) ; font-size: 13px ; text-align: left&quot;&gt;@ausz/editor&lt;/span&gt;" style="whiteSpace=wrap;html=1;fillColor=#B2C9AB;strokeColor=#788AA3;fontColor=#46495D;fontFamily=Comic Sans MS;arcSize=15;sketch=1;rounded=1;" parent="1" vertex="1">
          <mxGeometry x="480" y="260" width="150" height="40" as="geometry" />
        </mxCell>
        <mxCell id="r-J8uKCgHUFRE19tik7d-20" value="&lt;span style=&quot;color: rgb(51 , 51 , 51) ; font-size: 13px ; text-align: left&quot;&gt;@ausz/basement-demo&lt;/span&gt;" style="whiteSpace=wrap;html=1;fillColor=#B2C9AB;strokeColor=#788AA3;fontColor=#46495D;fontFamily=Comic Sans MS;arcSize=15;sketch=1;rounded=1;" parent="1" vertex="1">
          <mxGeometry x="160" y="200" width="150" height="40" as="geometry" />
        </mxCell>
        <mxCell id="r-J8uKCgHUFRE19tik7d-21" value="&lt;span style=&quot;color: rgb(51 , 51 , 51) ; font-size: 13px ; text-align: left&quot;&gt;more and more&lt;/span&gt;" style="whiteSpace=wrap;html=1;fillColor=#B2C9AB;strokeColor=#788AA3;fontColor=#46495D;fontFamily=Comic Sans MS;arcSize=15;sketch=1;rounded=1;" parent="1" vertex="1">
          <mxGeometry x="320" y="200" width="310" height="40" as="geometry" />
        </mxCell>
        <mxCell id="r-J8uKCgHUFRE19tik7d-22" value="templates" style="whiteSpace=wrap;html=1;fontFamily=Comic Sans MS;fontSize=16;fontColor=#46495D;strokeColor=#788AA3;fillColor=#B2C9AB;sketch=1;rounded=1;" parent="1" vertex="1">
          <mxGeometry x="160" y="440" width="120" height="40" as="geometry" />
        </mxCell>
        <mxCell id="r-J8uKCgHUFRE19tik7d-31" value="packages" style="whiteSpace=wrap;html=1;fontFamily=Comic Sans MS;fontSize=16;fontColor=#46495D;strokeColor=#788AA3;fillColor=#B2C9AB;sketch=1;rounded=1;" parent="1" vertex="1">
          <mxGeometry x="294" y="440" width="336" height="40" as="geometry" />
        </mxCell>
      </root>
    </mxGraphModel>
  </diagram>
</mxfile>
